# xmcd
#
# Track frame offsets: 
#        150
#        17076
#        35644
#        52149
#        76776
#        98261
#        109760
#        125124
#        142845
#        157101
#        169696
#        183502
#        220066
#        237249
#        252795
#        267276
#
# Disc length: 3790 seconds
#
# Revision: 0
# Processed by: cddbd v1.5.2PL0 Copyright (c) Steve Scherf et al.
# Submitted via: ExactAudioCopy v0.95b4
#
DISCID=d50ecc10
DTITLE=Various Artist - 2120 Michigan Avenue Chicago, Italia-Vol.1
DYEAR=1997
DGENRE=Blues
TTITLE0=Emiliano Degli Innocenti and Roberto Luti - You're Gonna Miss Me
TTITLE1=Dario Lombardo and Blues Gang - I Will Not Let You Go
TTITLE2=Chicago Blue Revue - Forty Cups Of Coffee
TTITLE3=Nick Becattini and Serious Fun - That's All Right
TTITLE4=Saturday Night Blues Band - Help Me
TTITLE5=Ernesto De Pascale and Francesco Bottai - Sittin' On The Top Of 
TTITLE5=The World
TTITLE6=Blues Messengers - Bright Lights Big City
TTITLE7=Angelo "Leadbelly" Rossi - Smokestack Lighting
TTITLE8=Capitano Elica and Muffin Blues Band - I've Been Abused
TTITLE9=Dennis and The Jets - No Particular Place To Go
TTITLE10=Il Sindaco Del Blues - Mannish Boy
TTITLE11=Treves Blues Band and Paolo Bonfanti - Long Distance Call
TTITLE12=Super Blues - Got My Moyo Working
TTITLE13=Red Roosters - Dust My Broom
TTITLE14=Little Red and The Roosters - Off The Wall
TTITLE15=Steady Rollin' Band - Nadine
EXTD=
EXTT0=
EXTT1=
EXTT2=
EXTT3=
EXTT4=
EXTT5=
EXTT6=
EXTT7=
EXTT8=
EXTT9=
EXTT10=
EXTT11=
EXTT12=
EXTT13=
EXTT14=
EXTT15=
PLAYORDER=
